<?xml version="1.0" standalone="no"?>
<!DOCTYPE svg PUBLIC "-//W3C//DTD SVG 20010904//EN"
 "http://www.w3.org/TR/2001/REC-SVG-20010904/DTD/svg10.dtd">
<svg version="1.0" xmlns="http://www.w3.org/2000/svg"
 width="513.000000pt" height="127.000000pt" viewBox="0 0 513.000000 127.000000"
 preserveAspectRatio="xMidYMid meet">
<metadata>
Created by potrace 1.15, written by Peter Selinger 2001-2017
</metadata>
<g transform="translate(0.000000,127.000000) scale(0.100000,-0.100000)"
fill="#000000" stroke="none">
<path d="M1790 665 c0 -297 3 -455 10 -455 7 0 10 158 10 455 0 297 -3 455
-10 455 -7 0 -10 -158 -10 -455z"/>
<path d="M574 1055 c-9 -24 15 -45 52 -45 22 0 34 -5 38 -17 2 -10 14 -51 26
-92 24 -83 22 -102 -18 -150 -28 -33 -30 -33 -65 -22 -157 52 -317 -57 -317
-215 0 -168 144 -278 304 -233 49 13 131 90 146 135 12 34 24 43 35 24 3 -6
24 -10 45 -10 30 0 43 6 59 26 12 15 21 35 21 45 0 10 9 19 22 21 33 5 33 26
-1 35 l-31 8 87 100 c47 55 90 101 94 103 5 2 14 -8 20 -21 10 -23 7 -28 -31
-63 -57 -52 -81 -102 -81 -172 -1 -76 24 -134 77 -180 91 -81 213 -82 304 -4
71 60 99 138 80 225 -23 111 -119 190 -230 190 -30 0 -61 -2 -69 -4 -8 -3 -25
23 -47 74 l-33 77 49 0 c39 0 54 -5 74 -25 29 -29 86 -35 86 -10 0 10 -10 15
-30 15 -20 0 -35 8 -46 25 -15 23 -22 25 -91 25 -75 0 -75 0 -69 -25 3 -14 9
-36 12 -50 l6 -25 -150 0 c-108 0 -152 3 -159 13 -9 11 -53 153 -53 169 0 4
15 8 33 10 53 5 36 22 -28 30 -33 3 -73 11 -88 17 -22 9 -29 8 -33 -4z m466
-270 c0 -12 -175 -205 -185 -204 -37 2 -49 19 -76 110 -16 52 -29 95 -29 97 0
1 65 2 145 2 80 0 145 -2 145 -5z m-285 -106 c13 -46 25 -90 25 -96 0 -26 -30
-12 -43 20 -8 17 -26 46 -40 63 l-26 31 25 37 c14 21 28 36 30 33 2 -2 15 -42
29 -88z m573 -3 c50 -34 92 -113 92 -170 -1 -55 -29 -114 -73 -153 -151 -133
-389 13 -337 206 13 50 79 127 102 119 8 -3 32 -47 53 -97 35 -85 55 -112 55
-75 0 9 -16 52 -35 95 -49 112 -49 112 34 107 55 -3 76 -9 109 -32z m-633 -54
c13 -20 27 -52 31 -70 l7 -32 -71 0 c-94 0 -103 14 -54 87 19 29 41 53 48 53
8 0 25 -17 39 -38z m157 -79 c21 -18 24 -53 6 -71 -15 -15 -61 -15 -76 0 -27
27 -3 88 35 88 9 0 25 -7 35 -17z m-332 -18 c-14 -16 -6 -35 16 -35 8 0 14 -4
14 -10 0 -16 -37 -12 -54 6 -19 18 -5 54 21 54 12 0 13 -3 3 -15z"/>
<path d="M2193 853 c-16 -6 -19 -423 -3 -423 6 0 10 73 10 200 l0 200 68 0
c81 0 110 -18 119 -73 9 -61 -32 -103 -119 -122 -44 -9 -35 -28 9 -20 85 16
133 63 133 130 0 53 -28 91 -78 105 -38 10 -117 12 -139 3z"/>
<path d="M3845 833 c-51 -33 -49 -32 -43 -39 4 -3 20 2 37 11 l31 16 0 -196
c0 -167 2 -195 15 -195 13 0 15 31 15 215 0 118 -3 215 -8 215 -4 0 -25 -12
-47 -27z"/>
<path d="M4095 829 c-87 -77 -87 -291 0 -368 48 -42 118 -44 164 -6 88 75 88
305 0 380 -46 38 -116 36 -164 -6z m162 -23 c29 -34 43 -86 43 -161 0 -124
-43 -195 -118 -195 -82 0 -122 66 -122 201 0 83 22 145 61 173 35 26 107 16
136 -18z"/>
<path d="M4495 829 c-87 -77 -87 -291 0 -368 48 -42 118 -44 164 -6 88 75 88
305 0 380 -46 38 -116 36 -164 -6z m162 -23 c29 -34 43 -86 43 -161 0 -124
-43 -195 -118 -195 -82 0 -122 66 -122 201 0 83 22 145 61 173 35 26 107 16
136 -18z"/>
<path d="M2530 625 c0 -123 4 -195 10 -195 6 0 10 72 10 195 0 123 -4 195 -10
195 -6 0 -10 -72 -10 -195z"/>
<path d="M2705 795 c-16 -15 -25 -35 -25 -56 0 -33 10 -45 134 -155 53 -47 58
-73 20 -111 -23 -23 -31 -25 -82 -21 -31 3 -65 9 -74 13 -10 4 -18 3 -18 -2 0
-18 50 -33 106 -33 48 0 60 4 85 29 21 21 29 39 29 63 0 40 -18 63 -92 116
-90 66 -107 103 -67 143 19 19 29 21 85 16 35 -4 64 -2 64 2 0 14 -28 21 -86
21 -45 0 -59 -4 -79 -25z"/>
<path d="M2942 808 c3 -8 28 -14 66 -16 l62 -3 0 -179 c0 -113 4 -180 10 -180
6 0 10 67 10 180 l0 179 62 3 c38 2 63 8 66 16 3 9 -29 12 -138 12 -109 0
-141 -3 -138 -12z"/>
<path d="M3365 788 c-74 -162 -151 -358 -142 -358 7 0 25 32 41 70 l29 71 90
-3 90 -3 28 -65 c15 -35 32 -66 38 -68 6 -2 11 -1 11 3 0 10 -162 385 -166
385 -3 0 -11 -15 -19 -32z m55 -94 c17 -41 34 -82 37 -90 4 -11 -10 -14 -75
-14 l-81 0 37 90 c20 49 40 90 44 90 3 0 20 -34 38 -76z"/>
</g>
</svg>
